<svg xmlns="http://www.w3.org/2000/svg" viewBox="0 0 220 220" role="img" aria-label="Anime Mochi happy expression">
  <defs><linearGradient id="fur" x1="0" x2="1" y1="0" y2="1"><stop stop-color="#fff7fc"/><stop offset="1" stop-color="#ffd6ea"/></linearGradient></defs>
  <path d="M64 71 46 34c-5-11 6-23 17-16l32 21Zm92 0 18-37c5-11-6-23-17-16l-32 21Z" fill="#ffc0dd" stroke="#7b5270" stroke-width="5" stroke-linejoin="round"/>
  <ellipse cx="110" cy="113" rx="77" ry="73" fill="url(#fur)" stroke="#7b5270" stroke-width="6"/>
  <path d="M69 103q11-13 23 0M128 103q11-13 23 0" fill="none" stroke="#55364f" stroke-width="7" stroke-linecap="round"/>
  <path d="M92 125q18 22 36 0" fill="#ff84b5" stroke="#55364f" stroke-width="5" stroke-linecap="round"/>
  <circle cx="62" cy="125" r="14" fill="#ff8dbc" opacity=".85"/><circle cx="158" cy="125" r="14" fill="#ff8dbc" opacity=".85"/>
  <path d="M42 91l-9-7M49 76l-5-12M178 91l9-7M171 76l5-12" stroke="#ffb000" stroke-width="5" stroke-linecap="round"/>
  <path d="M79 174q12 14 27 1M114 175q15 13 28-1" fill="none" stroke="#7b5270" stroke-width="6" stroke-linecap="round"/>
</svg>
